<svg width="364" height="364" viewBox="0 0 364 364" fill="none" xmlns="http://www.w3.org/2000/svg">
<path d="M182 71.5988C211.493 71.5988 239.212 83.083 260.069 103.931C280.926 124.779 292.41 152.507 292.41 182C292.41 211.493 280.926 239.212 260.069 260.069C239.212 280.926 211.493 292.401 182 292.401C152.507 292.401 124.788 280.917 103.931 260.069C83.0739 239.221 71.5988 211.493 71.5988 182C71.5988 152.507 83.083 124.788 103.931 103.931C124.788 83.083 152.507 71.5988 182 71.5988ZM182 0C81.4814 0 0 81.4814 0 182C0 282.519 81.4814 364 182 364C282.519 364 364 282.519 364 182C364 81.4814 282.519 0 182 0Z" fill="#F5F5F5" style="mix-blend-mode:multiply"/>
<path d="M182.399 120C147.937 120 120 147.937 120 182.399C120 216.86 147.937 244.797 182.399 244.797C216.86 244.797 244.797 216.86 244.797 182.399C244.797 147.937 216.86 120 182.399 120Z" fill="#F5F5F5" style="mix-blend-mode:multiply"/>
</svg>
