<svg width="80" height="80" viewBox="0 0 80 80" fill="none" xmlns="http://www.w3.org/2000/svg">
<circle cx="40" cy="40" r="39" stroke="white" stroke-width="2"/>
<path d="M43 27C43 28.658 41.209 30 39 30C37.904 30 36.914 29.669 36.191 29.135C35.596 29.66 34.728 30 33.75 30C32.931 30 32.191 29.76 31.619 29.375C31.256 29.752 30.668 30 30 30C28.894 30 28 29.328 28 28.5C28 27.672 28.894 27 30 27C30.195 27 30.379 27.027 30.557 27.066C30.824 25.893 32.148 25 33.75 25C34.435 25 35.07 25.165 35.595 25.444C36.297 24.581 37.553 24 39 24C41.209 24 43 25.342 43 27ZM32 34V32C32 31.447 31.553 31 31 31H27C26.447 31 26 31.447 26 32V34H32ZM54 52.625V53.375C54 53.721 53.721 54 53.375 54H25.625C25.279 54 25 53.721 25 53.375V52.625C25 52.279 25.279 52 25.625 52H26V35H32V40L38.455 35.07C38.557 34.992 38.695 34.978 38.811 35.035C38.927 35.093 39 35.211 39 35.34V40L45.455 35.07C45.557 34.992 45.695 34.978 45.811 35.035C45.927 35.093 46 35.211 46 35.34V40L52.455 35.07C52.557 34.992 52.695 34.978 52.811 35.035C52.927 35.093 53 35.211 53 35.34V40V52H53.375C53.721 52 54 52.279 54 52.625ZM37 48H34V50H37V48ZM37 44H34V46H37V44ZM43 48H40V50H43V48ZM43 44H40V46H43V44ZM49 48H46V50H49V48ZM49 44H46V46H49V44Z" fill="#FDBF0F"/>
</svg>
