<svg width="80" height="80" viewBox="0 0 80 80" fill="none" xmlns="http://www.w3.org/2000/svg">
<circle cx="40" cy="40" r="39" stroke="white" stroke-width="2"/>
<path d="M56.769 33.56C55.634 31.743 53.087 28.537 52.71 27.946C52.204 27.15 51.929 27 51.24 27H31.759C31.07 27 30.794 27.15 30.288 27.945C29.913 28.536 27.365 31.742 26.23 33.56C26.007 33.916 25.943 34.348 26.052 34.752C26.4 36.045 27.622 37 29.076 37C30.8 37 32.201 35.657 32.201 34C32.201 35.657 33.588 37 35.301 37C37.012 37 38.401 35.657 38.401 34C38.401 35.657 39.79 37 41.501 37C43.214 37 44.601 35.657 44.601 34C44.601 35.657 45.99 37 47.703 37C49.414 37 50.803 35.657 50.803 34C50.803 35.657 52.201 37 53.926 37C55.381 37 56.604 36.045 56.951 34.752C57.056 34.348 56.992 33.916 56.769 33.56ZM32.583 33L34.499 29H38.999L38.499 33H32.583ZM44.499 33L43.999 29H48.499L50.415 33H44.499ZM35 46C35 46.553 34.553 47 34 47C33.447 47 33 46.553 33 46C33 45.447 33.447 45 34 45C34.553 45 35 45.447 35 46ZM55.469 50H55V38.054C54.652 38.141 54.295 38.2 53.924 38.2C52.695 38.2 51.595 37.69 50.807 36.888C50.023 37.692 48.924 38.2 47.7 38.2C46.48 38.2 45.383 37.696 44.599 36.896C43.816 37.696 42.719 38.2 41.499 38.2C40.279 38.2 39.183 37.696 38.399 36.896C37.616 37.696 36.518 38.2 35.298 38.2C34.074 38.2 32.975 37.692 32.192 36.888C31.405 37.69 30.305 38.2 29.076 38.2C28.705 38.2 28.347 38.14 28 38.054V50H27.531C27.238 50 27 50.238 27 50.531V51.469C27 51.762 27.238 52 27.531 52H30H53H55.469C55.762 52 56 51.762 56 51.469V50.531C56 50.238 55.762 50 55.469 50ZM37 50H32V41.531C32 41.238 32.238 41 32.531 41H36.469C36.762 41 37 41.238 37 41.531V50ZM51 47.719C51 47.874 50.874 48 50.719 48H41.281C41.126 48 41 47.874 41 47.719V41.282C41 41.126 41.126 41 41.281 41H50.719C50.874 41 51 41.126 51 41.281V47.719Z" fill="#FDBF0F"/>
</svg>
