<svg width="139" height="169" viewBox="0 0 139 169" fill="none" xmlns="http://www.w3.org/2000/svg">
<path d="M59.571 66C48.21 66 39 75.21 39 86.571C39 97.932 48.21 107.142 59.571 107.142C70.932 107.142 80.142 97.932 80.142 86.571C80.142 75.21 70.932 66 59.571 66Z" fill="#E5E5E5" fill-opacity="0.6"/>
<path d="M60 50.604C69.723 50.604 78.861 54.39 85.737 61.263C92.613 68.136 96.399 77.277 96.399 87C96.399 96.723 92.613 105.861 85.737 112.737C78.861 119.613 69.723 123.396 60 123.396C50.277 123.396 41.139 119.61 34.263 112.737C27.387 105.864 23.604 96.723 23.604 87C23.604 77.277 27.39 68.139 34.263 61.263C41.139 54.39 50.277 50.604 60 50.604ZM60 27C26.862 27 0 53.862 0 87C0 120.138 26.862 147 60 147C93.138 147 120 120.138 120 87C120 53.862 93.138 27 60 27Z" fill="#E5E5E5" fill-opacity="0.6"/>
<circle cx="16.5" cy="64.5" r="16.5" fill="black"/>
<path d="M26.2607 66.0518V67.3262H21.0312V66.0518H26.2607ZM20.6357 61.833V61.209C20.6357 60.6055 20.7588 60.0664 21.0049 59.5918C21.2568 59.1172 21.6084 58.7451 22.0596 58.4756C22.5107 58.2002 23.0469 58.0625 23.668 58.0625C24.2949 58.0625 24.834 58.2002 25.2852 58.4756C25.7363 58.7451 26.085 59.1172 26.3311 59.5918C26.5771 60.0664 26.7002 60.6055 26.7002 61.209V61.833C26.7002 62.4365 26.5771 62.9756 26.3311 63.4502C26.0908 63.9189 25.7451 64.291 25.2939 64.5664C24.8428 64.8359 24.3066 64.9707 23.6855 64.9707C23.0586 64.9707 22.5166 64.8359 22.0596 64.5664C21.6084 64.291 21.2568 63.9189 21.0049 63.4502C20.7588 62.9756 20.6357 62.4365 20.6357 61.833ZM22.1387 61.209V61.833C22.1387 62.1787 22.1943 62.4951 22.3057 62.7822C22.417 63.0635 22.5869 63.2891 22.8154 63.459C23.0498 63.623 23.3398 63.7051 23.6855 63.7051C24.0254 63.7051 24.3066 63.623 24.5293 63.459C24.7578 63.2891 24.9248 63.0635 25.0303 62.7822C25.1416 62.4951 25.1973 62.1787 25.1973 61.833V61.209C25.1973 60.8691 25.1416 60.5586 25.0303 60.2773C24.9189 59.9902 24.749 59.7617 24.5205 59.5918C24.2979 59.4219 24.0137 59.3369 23.668 59.3369C23.3281 59.3369 23.0439 59.4219 22.8154 59.5918C22.5869 59.7617 22.417 59.9902 22.3057 60.2773C22.1943 60.5586 22.1387 60.8691 22.1387 61.209ZM19.5635 58.2031V71H16.7686L13.0508 62.5098V71H10.502V58.2031H13.2969L17.0146 66.7021V58.2031H19.5635Z" fill="white"/>
<path d="M103.422 31.4141V134H83.7344V55.6016L64.1875 63.125V46.6719L101.312 31.4141H103.422Z" fill="black"/>
</svg>
