<svg width="140" height="169" viewBox="0 0 140 169" fill="none" xmlns="http://www.w3.org/2000/svg">
<path d="M59.571 70C48.21 70 39 79.21 39 90.571C39 101.932 48.21 111.142 59.571 111.142C70.932 111.142 80.142 101.932 80.142 90.571C80.142 79.21 70.932 70 59.571 70Z" fill="#E5E5E5" fill-opacity="0.6"/>
<path d="M60 54.604C69.723 54.604 78.861 58.39 85.737 65.263C92.613 72.136 96.399 81.277 96.399 91C96.399 100.723 92.613 109.861 85.737 116.737C78.861 123.613 69.723 127.396 60 127.396C50.277 127.396 41.139 123.61 34.263 116.737C27.387 109.864 23.604 100.723 23.604 91C23.604 81.277 27.39 72.139 34.263 65.263C41.139 58.39 50.277 54.604 60 54.604ZM60 31C26.862 31 0 57.862 0 91C0 124.138 26.862 151 60 151C93.138 151 120 124.138 120 91C120 57.862 93.138 31 60 31Z" fill="#E5E5E5" fill-opacity="0.6"/>
<circle cx="16.5" cy="68.5" r="16.5" fill="black"/>
<path d="M26.2695 71.335H21.0225V70.043H26.2695V71.335ZM20.627 65.2266C20.627 64.2891 20.9082 63.5273 21.4707 62.9414C22.0332 62.3555 22.7656 62.0625 23.668 62.0625C24.5703 62.0625 25.3027 62.3555 25.8652 62.9414C26.4336 63.5215 26.7178 64.3008 26.7178 65.2793V65.8242C26.7178 66.75 26.4395 67.5059 25.8828 68.0918C25.332 68.6777 24.5996 68.9707 23.6855 68.9707C22.7656 68.9707 22.0244 68.6777 21.4619 68.0918C20.9053 67.5 20.627 66.7266 20.627 65.7715V65.2266ZM22.165 65.8242C22.165 66.4043 22.2998 66.8613 22.5693 67.1953C22.8447 67.5234 23.2168 67.6875 23.6855 67.6875C24.1484 67.6875 24.5117 67.5205 24.7754 67.1865C25.0449 66.8525 25.1797 66.3838 25.1797 65.7803V65.2266C25.1797 64.6523 25.042 64.1982 24.7666 63.8643C24.4912 63.5303 24.125 63.3633 23.668 63.3633C23.2168 63.3633 22.8535 63.5303 22.5781 63.8643C22.3027 64.1982 22.165 64.6641 22.165 65.2617V65.8242ZM19.5547 75H16.7598L13.0508 66.6768V75H10.4932V62.2031H13.2881L17.0059 70.5439V62.2031H19.5547V75Z" fill="white"/>
<path d="M121.086 134H60.7578V119.938L88.4609 84.7109C91.9766 79.8359 94.5547 75.5703 96.1953 71.9141C97.8828 68.2109 98.7266 64.6719 98.7266 61.2969C98.7266 56.75 97.9297 53.1875 96.3359 50.6094C94.7891 48.0312 92.5391 46.7422 89.5859 46.7422C86.3516 46.7422 83.7734 48.2422 81.8516 51.2422C79.9766 54.2422 79.0391 58.4609 79.0391 63.8984H59.0703C59.0703 57.6172 60.3594 51.875 62.9375 46.6719C65.5625 41.4688 69.2188 37.4375 73.9062 34.5781C78.6406 31.6719 83.9844 30.2188 89.9375 30.2188C99.0781 30.2188 106.156 32.75 111.172 37.8125C116.234 42.8281 118.766 49.9766 118.766 59.2578C118.766 65.0234 117.359 70.8828 114.547 76.8359C111.781 82.7422 106.742 90.0312 99.4297 98.7031L86.2812 117.477H121.086V134Z" fill="black"/>
</svg>
