<svg width="19" height="18" viewBox="0 0 19 18" fill="none" xmlns="http://www.w3.org/2000/svg">
<path d="M16.2375 12.25L13.6922 11.96C13.0809 11.89 12.4797 12.1 12.0488 12.53L10.2049 14.37C7.36903 12.93 5.04418
 10.62 3.60118 7.78L5.45504 5.93C5.88594 5.5 6.09637 4.9 6.02623 4.29L5.73562 1.77C5.61537 0.76 4.7636 0 3.74147 
 0H2.00786C0.875497 0 -0.066465 0.94 0.00368115 2.07C0.534788 10.61 7.37905 17.43 15.9269 17.96C17.0592 18.03 18.0012 
 17.09 18.0012 15.96V14.23C18.0112 13.22 17.2496 12.37 16.2375 12.25Z" fill=" #000000"/>
</svg>
