<svg width="131" height="40" viewBox="0 0 131 40" fill="none" xmlns="http://www.w3.org/2000/svg">
<path fill-rule="evenodd" clip-rule="evenodd" d="M0 4C0 1.79086 1.79086 0 4 0H127C129.209 0 131 1.79086 131 4V5C129.895 5 129 5.89543 129 7C129 8.10457 129.895 9 131 9V12C129.895 12 129 12.8954 129 14C129 15.1046 129.895 16 131 16V18C129.895 18 129 18.8954 129 20C129 21.1046 129.895 22 131 22V25C129.895 25 129 25.8954 129 27C129 28.1046 129.895 29 131 29V32C129.895 32 129 32.8954 129 34C129 35.1046 129.895 36 131 36C131 38.2091 129.209 40 127 40H4C1.79086 40 0 38.2091 0 36C1.10458 36 2.00001 35.1046 2.00001 34C2.00001 32.8954 1.10458 32 1.44243e-05 32V29C1.10458 29 2.00001 28.1046 2.00001 27C2.00001 25.8954 1.10458 25 1.44243e-05 25H0V22H1.44243e-05C1.10458 22 2.00001 21.1046 2.00001 20C2.00001 18.8954 1.10458 18 1.44243e-05 18H0V16H1.44243e-05C1.10458 16 2.00001 15.1046 2.00001 14C2.00001 12.8954 1.10458 12 1.44243e-05 12H0V9H1.44243e-05C1.10458 9 2.00001 8.10457 2.00001 7C2.00001 5.89543 1.10458 5 1.44243e-05 5H0V4Z" fill="#651FFF"/>
</svg>
