<svg width="19" height="40" viewBox="0 0 19 40" fill="none" xmlns="http://www.w3.org/2000/svg">
<path fill-rule="evenodd" clip-rule="evenodd" d="M15 40C17.2091 40 19 38.2091 19 36L19 4C19 1.79086 17.2091 -1.56562e-07 15 -3.49691e-07L4 -1.31134e-06C1.79086 -1.50447e-06 3.34035e-06 1.79086 3.14722e-06 4C1.10457 4 2 4.89543 2 6C2 7.10457 1.10457 8 2.79753e-06 8L2.53526e-06 11C1.10457 11 2 11.8954 2 13C2 14.1046 1.10457 15 2.18557e-06 15L1.9233e-06 18C1.10457 18 2 18.8954 2 20C2 21.1046 1.10457 22 1.57361e-06 22L1.39876e-06 24C1.10457 24 2 24.8954 2 26C2 27.1046 1.10457 28 1.04907e-06 28L7.86805e-07 31C1.10457 31 2 31.8954 2 33C2 34.1046 1.10457 35 4.37114e-07 35L3.49691e-07 36C1.56562e-07 38.2091 1.79086 40 4 40L15 40Z" fill="#651FFF"/>
</svg>
