<svg width="19" height="40" viewBox="0 0 19 40" fill="none" xmlns="http://www.w3.org/2000/svg">
<path fill-rule="evenodd" clip-rule="evenodd" d="M4 0C1.79086 0 0 1.79086 0 4V36C0 38.2091 1.79086 40 4 40H15C17.2091 40 19 38.2091 19 36C17.8954 36 17 35.1046 17 34C17 32.8954 17.8954 32 19 32V29C17.8954 29 17 28.1046 17 27C17 25.8954 17.8954 25 19 25V22C17.8954 22 17 21.1046 17 20C17 18.8954 17.8954 18 19 18V16C17.8954 16 17 15.1046 17 14C17 12.8954 17.8954 12 19 12V9C17.8954 9 17 8.10457 17 7C17 5.89543 17.8954 5 19 5V4C19 1.79086 17.2091 0 15 0H4Z" fill="#651FFF"/>
</svg>
